<svg width="294" height="29" viewBox="0 0 294 29" fill="none" xmlns="http://www.w3.org/2000/svg">
<path d="M0.892046 3.96591V1.81818H19.8764V3.96591H11.5795V28H9.18892V3.96591H0.892046ZM21.6664 28V8.36364H23.8781V11.3807H24.0443C24.4363 10.392 25.1182 9.59517 26.0897 8.99006C27.0699 8.37642 28.1778 8.0696 29.4136 8.0696C29.6011 8.0696 29.8099 8.07386 30.04 8.08239C30.2701 8.09091 30.4619 8.09943 30.6153 8.10795V10.4219C30.513 10.4048 30.3341 10.3793 30.0784 10.3452C29.8227 10.3111 29.5457 10.294 29.2474 10.294C28.2247 10.294 27.3128 10.5114 26.5116 10.946C25.719 11.3722 25.0926 11.9645 24.6324 12.723C24.1721 13.4815 23.942 14.3466 23.942 15.3182V28H21.6664ZM38.9029 28.4474C37.7182 28.4474 36.6358 28.2173 35.6557 27.7571C34.6756 27.2884 33.8958 26.6151 33.3162 25.7372C32.7367 24.8509 32.4469 23.777 32.4469 22.5156C32.4469 21.544 32.6301 20.7259 32.9966 20.0611C33.3631 19.3963 33.883 18.8509 34.5563 18.4247C35.2296 17.9986 36.0264 17.6619 36.9469 17.4148C37.8673 17.1676 38.8815 16.9759 39.9895 16.8395C41.0889 16.7031 42.0179 16.5838 42.7764 16.4815C43.5435 16.3793 44.1273 16.2173 44.5279 15.9957C44.9284 15.7741 45.1287 15.4162 45.1287 14.9219V14.4616C45.1287 13.1236 44.7281 12.071 43.927 11.304C43.1344 10.5284 41.9923 10.1406 40.5009 10.1406C39.0861 10.1406 37.9313 10.4517 37.0364 11.0739C36.15 11.696 35.5279 12.429 35.1699 13.2727L33.0094 12.4929C33.4526 11.419 34.0662 10.5625 34.8503 9.9233C35.6344 9.27557 36.5122 8.81108 37.4838 8.52983C38.4554 8.24006 39.4398 8.09517 40.4369 8.09517C41.1869 8.09517 41.9668 8.19318 42.7764 8.3892C43.5946 8.58523 44.3531 8.92614 45.052 9.41193C45.7509 9.8892 46.3176 10.5582 46.7523 11.419C47.1869 12.2713 47.4043 13.3537 47.4043 14.6662V28H45.1287V24.8935H44.9881C44.7154 25.473 44.3105 26.0355 43.7736 26.581C43.2367 27.1264 42.5634 27.5739 41.7537 27.9233C40.944 28.2727 39.9938 28.4474 38.9029 28.4474ZM39.2097 26.3636C40.4199 26.3636 41.4682 26.0952 42.3546 25.5582C43.2409 25.0213 43.9227 24.3097 44.4 23.4233C44.8858 22.5284 45.1287 21.544 45.1287 20.4702V17.6321C44.9583 17.794 44.6727 17.9389 44.2722 18.0668C43.8801 18.1946 43.4242 18.3097 42.9043 18.4119C42.3929 18.5057 41.8815 18.5866 41.3702 18.6548C40.8588 18.723 40.3986 18.7827 39.9895 18.8338C38.8815 18.9702 37.9355 19.1832 37.1514 19.473C36.3673 19.7628 35.7665 20.1634 35.3489 20.6747C34.9313 21.1776 34.7225 21.8253 34.7225 22.6179C34.7225 23.8111 35.1486 24.7358 36.0009 25.392C36.8531 26.0398 37.9227 26.3636 39.2097 26.3636ZM59.4471 28.4091C57.8363 28.4091 56.4258 27.983 55.2156 27.1307C54.0054 26.2784 53.0594 25.0895 52.3775 23.5639C51.7042 22.0384 51.3676 20.2614 51.3676 18.233C51.3676 16.2131 51.7042 14.4446 52.3775 12.9276C53.0594 11.402 54.0096 10.2173 55.2284 9.37358C56.4471 8.52131 57.8662 8.09517 59.4855 8.09517C60.6787 8.09517 61.6716 8.30824 62.4642 8.73438C63.2568 9.15199 63.8917 9.67187 64.369 10.294C64.8463 10.9162 65.217 11.5213 65.4812 12.1094H65.6858V1.81818H67.9741V28H65.7497V24.3565H65.4812C65.217 24.9531 64.842 25.5668 64.3562 26.1974C63.8704 26.8196 63.227 27.3437 62.4258 27.7699C61.6332 28.196 60.6403 28.4091 59.4471 28.4091ZM59.7156 26.3253C60.9855 26.3253 62.0679 25.9801 62.9628 25.2898C63.8577 24.5909 64.5395 23.6321 65.0082 22.4134C65.4855 21.1861 65.7241 19.7798 65.7241 18.1946C65.7241 16.6264 65.4898 15.2415 65.021 14.0398C64.5523 12.8295 63.8704 11.8835 62.9756 11.2017C62.0807 10.5114 60.994 10.1662 59.7156 10.1662C58.4031 10.1662 57.2952 10.5241 56.3917 11.2401C55.4969 11.9474 54.815 12.9062 54.3463 14.1165C53.8861 15.3267 53.656 16.6861 53.656 18.1946C53.656 19.7202 53.8903 21.0966 54.3591 22.3239C54.8278 23.5511 55.5096 24.527 56.4045 25.2514C57.3079 25.9673 58.4116 26.3253 59.7156 26.3253ZM81.3146 28.4091C79.4822 28.4091 77.897 27.983 76.5589 27.1307C75.2208 26.2699 74.1853 25.081 73.4524 23.5639C72.7279 22.0384 72.3657 20.2827 72.3657 18.2969C72.3657 16.3196 72.7279 14.5639 73.4524 13.0298C74.1853 11.4872 75.1953 10.2812 76.4822 9.41193C77.7777 8.53409 79.2734 8.09517 80.9694 8.09517C82.0348 8.09517 83.0617 8.29119 84.0504 8.68324C85.039 9.06676 85.9254 9.65909 86.7095 10.4602C87.5021 11.2528 88.1285 12.2543 88.5887 13.4645C89.049 14.6662 89.2791 16.0895 89.2791 17.7344V18.8594H73.9382V16.8523H86.9524C86.9524 15.5909 86.6967 14.4574 86.1853 13.4517C85.6825 12.4375 84.9794 11.6364 84.076 11.0483C83.1811 10.4602 82.1456 10.1662 80.9694 10.1662C79.7251 10.1662 78.6299 10.4986 77.6839 11.1634C76.7379 11.8281 75.9964 12.706 75.4595 13.7969C74.9311 14.8878 74.6626 16.081 74.6541 17.3764V18.5781C74.6541 20.1378 74.9225 21.5014 75.4595 22.669C76.0049 23.8281 76.7762 24.7273 77.7734 25.3665C78.7706 26.0057 79.951 26.3253 81.3146 26.3253C82.2436 26.3253 83.0575 26.1804 83.7564 25.8906C84.4637 25.6009 85.0561 25.2131 85.5333 24.7273C86.0191 24.233 86.3856 23.6918 86.6328 23.1037L88.7933 23.8068C88.495 24.6335 88.0049 25.3963 87.3231 26.0952C86.6498 26.794 85.8061 27.3565 84.7919 27.7827C83.7862 28.2003 82.6271 28.4091 81.3146 28.4091ZM98.3784 28L90.8869 1.81818H96.9338L101.268 20.0099H101.485L106.266 1.81818H111.444L116.212 20.0483H116.442L120.776 1.81818H126.823L119.332 28H113.937L108.951 10.8821H108.746L103.773 28H98.3784ZM135.366 28.3835C133.38 28.3835 131.663 27.9616 130.214 27.1179C128.774 26.2656 127.662 25.081 126.878 23.5639C126.094 22.0384 125.701 20.2699 125.701 18.2585C125.701 16.2301 126.094 14.4574 126.878 12.9403C127.662 11.4148 128.774 10.2301 130.214 9.38636C131.663 8.53409 133.38 8.10795 135.366 8.10795C137.352 8.10795 139.065 8.53409 140.505 9.38636C141.954 10.2301 143.071 11.4148 143.855 12.9403C144.639 14.4574 145.031 16.2301 145.031 18.2585C145.031 20.2699 144.639 22.0384 143.855 23.5639C143.071 25.081 141.954 26.2656 140.505 27.1179C139.065 27.9616 137.352 28.3835 135.366 28.3835ZM135.392 24.1648C136.295 24.1648 137.049 23.9091 137.655 23.3977C138.26 22.8778 138.716 22.1705 139.022 21.2756C139.338 20.3807 139.495 19.3622 139.495 18.2202C139.495 17.0781 139.338 16.0597 139.022 15.1648C138.716 14.2699 138.26 13.5625 137.655 13.0426C137.049 12.5227 136.295 12.2628 135.392 12.2628C134.48 12.2628 133.713 12.5227 133.091 13.0426C132.477 13.5625 132.013 14.2699 131.697 15.1648C131.39 16.0597 131.237 17.0781 131.237 18.2202C131.237 19.3622 131.39 20.3807 131.697 21.2756C132.013 22.1705 132.477 22.8778 133.091 23.3977C133.713 23.9091 134.48 24.1648 135.392 24.1648ZM147.492 28V8.36364H152.772V11.7898H152.977C153.335 10.571 153.935 9.65057 154.779 9.02841C155.623 8.39773 156.594 8.08239 157.694 8.08239C157.967 8.08239 158.261 8.09943 158.576 8.13352C158.891 8.16761 159.168 8.21449 159.407 8.27415V13.1065C159.151 13.0298 158.798 12.9616 158.346 12.902C157.894 12.8423 157.481 12.8125 157.106 12.8125C156.305 12.8125 155.589 12.9872 154.958 13.3366C154.336 13.6776 153.842 14.1548 153.475 14.7685C153.117 15.3821 152.938 16.0895 152.938 16.8906V28H147.492ZM166.077 22.3494L166.09 15.8168H166.883L173.173 8.36364H179.424L170.974 18.233H169.682L166.077 22.3494ZM161.143 28V1.81818H166.589V28H161.143ZM173.415 28L167.637 19.4474L171.268 15.5994L179.795 28H173.415ZM197.354 13.9631L192.368 14.2699C192.283 13.8437 192.1 13.4602 191.818 13.1193C191.537 12.7699 191.166 12.4929 190.706 12.2884C190.254 12.0753 189.713 11.9688 189.083 11.9688C188.239 11.9688 187.527 12.1477 186.948 12.5057C186.368 12.8551 186.078 13.3239 186.078 13.9119C186.078 14.3807 186.266 14.777 186.641 15.1009C187.016 15.4247 187.659 15.6847 188.571 15.8807L192.125 16.5966C194.034 16.9886 195.458 17.6193 196.395 18.4886C197.333 19.358 197.801 20.5 197.801 21.9148C197.801 23.2017 197.422 24.331 196.664 25.3026C195.914 26.2741 194.882 27.0327 193.57 27.5781C192.266 28.1151 190.762 28.3835 189.057 28.3835C186.458 28.3835 184.387 27.8423 182.844 26.7599C181.31 25.669 180.411 24.1861 180.146 22.3111L185.503 22.0298C185.665 22.8224 186.057 23.4276 186.679 23.8452C187.301 24.2543 188.098 24.4588 189.07 24.4588C190.024 24.4588 190.791 24.2756 191.371 23.9091C191.959 23.5341 192.257 23.0526 192.266 22.4645C192.257 21.9702 192.048 21.5653 191.639 21.25C191.23 20.9261 190.6 20.679 189.747 20.5085L186.347 19.831C184.429 19.4474 183.002 18.7827 182.064 17.8366C181.135 16.8906 180.671 15.6847 180.671 14.2188C180.671 12.9574 181.012 11.8707 181.693 10.9588C182.384 10.0469 183.351 9.34375 184.595 8.84943C185.848 8.35511 187.314 8.10795 188.993 8.10795C191.473 8.10795 193.425 8.6321 194.848 9.6804C196.28 10.7287 197.115 12.1562 197.354 13.9631ZM210.595 8.36364V12.4545H198.77V8.36364H210.595ZM201.455 3.65909H206.901V21.9659C206.901 22.4687 206.977 22.8608 207.131 23.142C207.284 23.4148 207.497 23.6065 207.77 23.7173C208.051 23.8281 208.375 23.8835 208.742 23.8835C208.997 23.8835 209.253 23.8622 209.509 23.8196C209.764 23.7685 209.96 23.7301 210.097 23.7045L210.953 27.7571C210.68 27.8423 210.297 27.9403 209.803 28.0511C209.308 28.1705 208.707 28.2429 208 28.2685C206.688 28.3196 205.537 28.1449 204.548 27.7443C203.568 27.3437 202.805 26.7216 202.26 25.8778C201.715 25.0341 201.446 23.9687 201.455 22.6818V3.65909ZM218.662 28.3707C217.409 28.3707 216.293 28.1534 215.313 27.7188C214.333 27.2756 213.557 26.6236 212.986 25.7628C212.424 24.8935 212.142 23.8111 212.142 22.5156C212.142 21.4247 212.343 20.5085 212.743 19.767C213.144 19.0256 213.689 18.429 214.38 17.9773C215.07 17.5256 215.854 17.1847 216.732 16.9545C217.618 16.7244 218.547 16.5625 219.519 16.4688C220.661 16.3494 221.581 16.2386 222.28 16.1364C222.979 16.0256 223.486 15.8636 223.801 15.6506C224.117 15.4375 224.274 15.1222 224.274 14.7045V14.6278C224.274 13.8182 224.019 13.1918 223.507 12.7486C223.005 12.3054 222.289 12.0838 221.36 12.0838C220.38 12.0838 219.6 12.3011 219.02 12.7358C218.441 13.1619 218.057 13.6989 217.87 14.3466L212.833 13.9375C213.088 12.7443 213.591 11.7131 214.341 10.8438C215.091 9.96591 216.059 9.29261 217.243 8.82386C218.436 8.34659 219.817 8.10795 221.385 8.10795C222.476 8.10795 223.52 8.2358 224.517 8.49148C225.523 8.74716 226.414 9.14347 227.189 9.6804C227.973 10.2173 228.591 10.9077 229.043 11.7514C229.495 12.5866 229.72 13.5881 229.72 14.7557V28H224.556V25.277H224.402C224.087 25.8906 223.665 26.4318 223.137 26.9006C222.608 27.3608 221.973 27.723 221.232 27.9872C220.49 28.2429 219.634 28.3707 218.662 28.3707ZM220.222 24.6122C221.023 24.6122 221.73 24.4545 222.344 24.1392C222.958 23.8153 223.439 23.3807 223.789 22.8352C224.138 22.2898 224.313 21.6719 224.313 20.9815V18.8977C224.142 19.0085 223.908 19.1108 223.61 19.2045C223.32 19.2898 222.992 19.3707 222.625 19.4474C222.259 19.5156 221.892 19.5795 221.526 19.6392C221.159 19.6903 220.827 19.7372 220.529 19.7798C219.89 19.8736 219.331 20.0227 218.854 20.2273C218.377 20.4318 218.006 20.7088 217.742 21.0582C217.478 21.3991 217.345 21.8253 217.345 22.3366C217.345 23.0781 217.614 23.6449 218.151 24.0369C218.696 24.4205 219.387 24.6122 220.222 24.6122ZM243.31 8.36364V12.4545H231.485V8.36364H243.31ZM234.17 3.65909H239.616V21.9659C239.616 22.4687 239.692 22.8608 239.846 23.142C239.999 23.4148 240.212 23.6065 240.485 23.7173C240.766 23.8281 241.09 23.8835 241.457 23.8835C241.712 23.8835 241.968 23.8622 242.224 23.8196C242.479 23.7685 242.675 23.7301 242.812 23.7045L243.668 27.7571C243.395 27.8423 243.012 27.9403 242.518 28.0511C242.023 28.1705 241.422 28.2429 240.715 28.2685C239.403 28.3196 238.252 28.1449 237.263 27.7443C236.283 27.3437 235.52 26.7216 234.975 25.8778C234.43 25.0341 234.161 23.9687 234.17 22.6818V3.65909ZM245.778 28V8.36364H251.224V28H245.778ZM248.514 5.83239C247.704 5.83239 247.009 5.56392 246.43 5.02699C245.859 4.48153 245.573 3.82954 245.573 3.07102C245.573 2.32102 245.859 1.67756 246.43 1.14062C247.009 0.59517 247.704 0.322442 248.514 0.322442C249.323 0.322442 250.014 0.59517 250.585 1.14062C251.164 1.67756 251.454 2.32102 251.454 3.07102C251.454 3.82954 251.164 4.48153 250.585 5.02699C250.014 5.56392 249.323 5.83239 248.514 5.83239ZM263.379 28.3835C261.393 28.3835 259.675 27.9616 258.227 27.1179C256.786 26.2656 255.674 25.081 254.89 23.5639C254.106 22.0384 253.714 20.2699 253.714 18.2585C253.714 16.2301 254.106 14.4574 254.89 12.9403C255.674 11.4148 256.786 10.2301 258.227 9.38636C259.675 8.53409 261.393 8.10795 263.379 8.10795C265.364 8.10795 267.077 8.53409 268.518 9.38636C269.967 10.2301 271.083 11.4148 271.867 12.9403C272.651 14.4574 273.043 16.2301 273.043 18.2585C273.043 20.2699 272.651 22.0384 271.867 23.5639C271.083 25.081 269.967 26.2656 268.518 27.1179C267.077 27.9616 265.364 28.3835 263.379 28.3835ZM263.404 24.1648C264.308 24.1648 265.062 23.9091 265.667 23.3977C266.272 22.8778 266.728 22.1705 267.035 21.2756C267.35 20.3807 267.508 19.3622 267.508 18.2202C267.508 17.0781 267.35 16.0597 267.035 15.1648C266.728 14.2699 266.272 13.5625 265.667 13.0426C265.062 12.5227 264.308 12.2628 263.404 12.2628C262.492 12.2628 261.725 12.5227 261.103 13.0426C260.489 13.5625 260.025 14.2699 259.71 15.1648C259.403 16.0597 259.249 17.0781 259.249 18.2202C259.249 19.3622 259.403 20.3807 259.71 21.2756C260.025 22.1705 260.489 22.8778 261.103 23.3977C261.725 23.9091 262.492 24.1648 263.404 24.1648ZM280.951 16.6477V28H275.505V8.36364H280.695V11.8281H280.925C281.36 10.6861 282.088 9.78267 283.111 9.1179C284.134 8.4446 285.374 8.10795 286.831 8.10795C288.195 8.10795 289.384 8.40625 290.398 9.00284C291.412 9.59943 292.201 10.4517 292.763 11.5597C293.326 12.6591 293.607 13.9716 293.607 15.4972V28H288.161V16.4688C288.169 15.267 287.862 14.3295 287.24 13.6562C286.618 12.9744 285.762 12.6335 284.671 12.6335C283.938 12.6335 283.29 12.7912 282.728 13.1065C282.174 13.4219 281.739 13.8821 281.424 14.4872C281.117 15.0838 280.959 15.804 280.951 16.6477Z" fill="url(#paint0_linear_17_20)"/>
<defs>
<linearGradient id="paint0_linear_17_20" x1="117.5" y1="2.5" x2="462.5" y2="89.5" gradientUnits="userSpaceOnUse">
<stop stop-color="white"/>
<stop offset="1" stop-color="#717171"/>
</linearGradient>
</defs>
</svg>
